<svg width="70" height="70" viewBox="0 0 70 70" fill="none" xmlns="http://www.w3.org/2000/svg">
<g clip-path="url(#clip0_27_2)">
<path d="M35 20.3336C35.3682 20.3336 35.6667 20.0351 35.6667 19.6669V15.6667C35.6667 15.2985 35.3682 15 35 15C34.6319 15 34.3333 15.2985 34.3333 15.6667V19.6669C34.3333 20.0351 34.6318 20.3336 35 20.3336Z" fill="url(#paint0_linear_27_2)"/>
<path d="M25.0889 18.4982L27.089 21.965C27.271 22.2851 27.678 22.3971 27.9981 22.2151C28.3182 22.0331 28.4301 21.626 28.2481 21.3059C28.2467 21.3033 28.2452 21.3008 28.2437 21.2983L26.2436 17.8314C26.0616 17.5113 25.6546 17.3994 25.3345 17.5814C25.0144 17.7634 24.9024 18.1704 25.0844 18.4905C25.0859 18.4931 25.0874 18.4957 25.0889 18.4982Z" fill="url(#paint1_linear_27_2)"/>
<path d="M18.4998 25.5779L21.9667 27.578C22.2868 27.76 22.6938 27.6481 22.8758 27.328C23.0561 27.0109 22.9481 26.6078 22.6334 26.4233L19.1665 24.4232C18.8464 24.2412 18.4394 24.3531 18.2574 24.6732C18.0771 24.9903 18.1851 25.3934 18.4998 25.5779Z" fill="url(#paint2_linear_27_2)"/>
<path d="M20.9993 34.3344C20.9993 33.9662 20.7008 33.6677 20.3326 33.6677H16.3324C15.9642 33.6677 15.6657 33.9662 15.6657 34.3344C15.6657 34.7026 15.9642 35.0011 16.3324 35.0011H20.3326C20.7008 35.0011 20.9993 34.7026 20.9993 34.3344Z" fill="url(#paint3_linear_27_2)"/>
<path d="M21.9718 41.0862C21.9692 41.0877 21.9666 41.0892 21.964 41.0907L18.4972 43.0908C18.1771 43.2727 18.0651 43.6798 18.247 43.9999C18.4289 44.32 18.8359 44.432 19.156 44.25C19.1586 44.2485 19.1612 44.247 19.1638 44.2455L22.6306 42.2454C22.9507 42.0635 23.0627 41.6565 22.8808 41.3364C22.6989 41.0163 22.2919 40.9043 21.9718 41.0862Z" fill="url(#paint4_linear_27_2)"/>
<path d="M51.5002 43.0908L48.0334 41.0907C47.7158 40.9045 47.3073 41.011 47.121 41.3286C46.9347 41.6462 47.0412 42.0547 47.3588 42.2409C47.3614 42.2424 47.364 42.2439 47.3666 42.2454L50.8334 44.2456C51.1535 44.4275 51.5606 44.3155 51.7425 43.9954C51.9227 43.6784 51.8148 43.2753 51.5002 43.0908Z" fill="url(#paint5_linear_27_2)"/>
<path d="M53.6677 33.6677H49.6675C49.2993 33.6677 49.0008 33.9662 49.0008 34.3344C49.0008 34.7026 49.2993 35.0011 49.6675 35.0011H53.6677C54.0359 35.0011 54.3344 34.7026 54.3344 34.3344C54.3344 33.9662 54.0359 33.6677 53.6677 33.6677Z" fill="url(#paint6_linear_27_2)"/>
<path d="M47.7033 27.6673C47.8204 27.6673 47.9354 27.6365 48.0367 27.578L51.5035 25.5779C51.8212 25.3917 51.9277 24.9832 51.7416 24.6656C51.557 24.3509 51.1539 24.2429 50.8368 24.4232L47.37 26.4233C47.0511 26.6074 46.9419 27.0151 47.126 27.334C47.2451 27.5402 47.4652 27.6673 47.7033 27.6673Z" fill="url(#paint7_linear_27_2)"/>
<path d="M42.0004 22.2091C42.3192 22.3932 42.727 22.2839 42.9111 21.9651L44.9112 18.4982C45.0975 18.1806 44.991 17.7721 44.6734 17.5858C44.3558 17.3996 43.9472 17.5061 43.761 17.8237C43.7595 17.8263 43.758 17.8288 43.7565 17.8314L41.7564 21.2983C41.5722 21.6172 41.6815 22.025 42.0004 22.2091Z" fill="url(#paint8_linear_27_2)"/>
<path d="M35 24.3337C29.4795 24.34 25.0058 28.8137 24.9995 34.3343C24.9995 34.7024 25.298 35.001 25.6662 35.001C26.0344 35.001 26.3329 34.7024 26.3329 34.3343C26.3384 29.5498 30.2156 25.6726 35 25.6671C35.3682 25.6671 35.6667 25.3686 35.6667 25.0004C35.6667 24.6323 35.3682 24.3337 35 24.3337Z" fill="url(#paint9_linear_27_2)"/>
<path d="M47.2007 37.7304V37.7271C47.222 37.6604 47.2413 37.5884 47.258 37.5231C47.282 37.4311 47.302 37.3384 47.3247 37.2458C47.3473 37.1531 47.3687 37.0604 47.3813 36.9864C48.8595 30.1484 44.5145 23.4068 37.6765 21.9285C30.8385 20.4503 24.0969 24.7954 22.6186 31.6334C22.4268 32.5208 22.331 33.4263 22.3327 34.3343C22.3327 34.631 22.3454 34.9256 22.366 35.2183C22.3767 35.3803 22.3927 35.545 22.4127 35.7177C22.4501 36.0577 22.4981 36.395 22.5627 36.7291C22.5681 36.7564 22.5701 36.7844 22.5774 36.8117C22.6067 36.9644 22.6441 37.1124 22.6794 37.2604C22.7001 37.3464 22.7201 37.4324 22.7421 37.5178C22.7521 37.5538 22.7574 37.5844 22.7687 37.6258C22.7954 37.7251 22.8267 37.8191 22.8561 37.9165C22.8874 38.0245 22.9174 38.1325 22.9521 38.2391L22.9561 38.2518C23.0161 38.4458 23.0841 38.6345 23.1661 38.8445C23.1814 38.8852 23.1974 38.9252 23.2134 38.9652C23.2281 39.0148 23.2473 39.063 23.2708 39.1092L23.2741 39.1172C23.3188 39.2359 23.3708 39.3539 23.4228 39.4645L23.4314 39.4812C23.4648 39.5565 23.4981 39.6312 23.5341 39.7065C23.5508 39.7439 23.5668 39.7852 23.5834 39.8192C23.762 40.1956 23.961 40.5619 24.1795 40.9166L24.2415 41.0153C24.2815 41.082 24.3221 41.1486 24.3628 41.2053L24.4448 41.3273C24.4848 41.386 24.5262 41.4453 24.5668 41.504C24.5962 41.5466 24.6235 41.5893 24.6535 41.6313C24.6682 41.6553 24.6822 41.6787 24.7008 41.704C24.7148 41.7227 24.7302 41.7413 24.7448 41.76C24.7708 41.796 24.7975 41.8267 24.8235 41.862C24.9328 42.01 25.0435 42.1567 25.1569 42.3L25.1649 42.3107C25.1862 42.336 25.2082 42.36 25.2315 42.3854C25.3649 42.5467 25.4982 42.7067 25.6416 42.862H25.6449C25.7636 42.9954 25.8896 43.1207 26.0149 43.2474C26.0549 43.2867 26.0916 43.3287 26.1316 43.3681C26.1489 43.3847 26.1642 43.4034 26.1816 43.4201C26.3616 43.5934 26.5483 43.7594 26.7329 43.9234C27.083 44.2303 27.4521 44.5144 27.8383 44.7741C27.9075 44.8522 27.9941 44.913 28.091 44.9515L28.3517 46.8929C28.3423 46.9285 28.336 46.9649 28.333 47.0016C28.3349 47.1041 28.3606 47.2049 28.4084 47.2956L28.8991 50.9438C28.9071 51.0066 28.9244 51.068 28.9504 51.1258C29.0915 51.4447 29.2615 51.75 29.4584 52.0379V52.0425L29.4637 52.0485C31.5125 55.1035 35.65 55.9193 38.705 53.8705C39.4251 53.3876 40.0441 52.7686 40.527 52.0485L40.5323 52.0425L40.5357 52.0379C40.7326 51.75 40.9026 51.4447 41.0437 51.1258C41.0697 51.068 41.0869 51.0066 41.095 50.9438L41.9011 44.9508C41.9477 44.9352 41.9924 44.9144 42.0344 44.8888C44.55 43.2031 46.379 40.6725 47.1907 37.7551C47.1967 37.7471 47.2007 37.7391 47.2007 37.7304ZM31.4785 52.3352H38.5216C36.5104 54.1131 33.4895 54.1131 31.4785 52.3352ZM39.7923 50.6685C39.7396 50.7818 39.6816 50.8931 39.6196 51.0018H30.3804C30.3184 50.8938 30.2604 50.7825 30.2077 50.6685L29.8044 47.6683H40.1956L39.7923 50.6685ZM40.3736 46.3429C40.3596 46.3422 40.3476 46.3349 40.3336 46.3349H29.6251L29.4457 45.0015H40.5543L40.3736 46.3429ZM33.6666 43.6681V37.4251L34.606 38.1018C34.8388 38.2695 35.1526 38.2695 35.3854 38.1018L36.3334 37.4191V43.6681H33.6666ZM46.3086 35.0676C46.296 35.273 46.2773 35.4717 46.2526 35.6717V35.687C46.2445 35.7234 46.2389 35.7604 46.236 35.7977V35.811C46.232 35.831 46.2293 35.851 46.2266 35.8723C46.224 35.8937 46.2226 35.9057 46.2206 35.9237C46.2206 35.943 46.2153 35.9617 46.2126 35.981C46.198 36.0844 46.1826 36.187 46.1646 36.2897C46.156 36.3364 46.1493 36.3797 46.138 36.4324C46.1273 36.503 46.1106 36.5791 46.0859 36.6924V36.7044C46.0693 36.7844 46.0519 36.8644 46.0333 36.9437C46.0266 36.9704 46.0219 36.9931 46.0139 37.0231C45.9915 37.1327 45.9634 37.241 45.9299 37.3478C45.9173 37.3951 45.9033 37.4424 45.8899 37.4898C45.8573 37.6104 45.8233 37.7284 45.7779 37.8571C45.7233 38.0278 45.6693 38.1985 45.6026 38.3618L45.5766 38.4285C45.5454 38.5152 45.5098 38.6002 45.4699 38.6832C45.4553 38.7119 45.4431 38.7418 45.4332 38.7725L45.4199 38.8025C45.3606 38.9518 45.2946 39.0945 45.2092 39.2692C45.1612 39.3772 45.1079 39.4792 45.0546 39.5812L44.9739 39.7406C44.1184 41.3172 42.8999 42.6676 41.419 43.6801C41.3844 43.6731 41.3491 43.6691 41.3137 43.6681H37.6668V38.0638L37.7202 38.1018C37.9526 38.2688 38.2658 38.2688 38.4982 38.1018L40.0556 36.9831C40.3606 36.7766 40.4405 36.3622 40.2341 36.0573C40.0276 35.7523 39.6132 35.6724 39.3083 35.8789C39.2981 35.8858 39.2881 35.8929 39.2783 35.9004L38.1089 36.7397L36.9401 35.9004C36.7075 35.733 36.394 35.733 36.1614 35.9004L34.996 36.7391L33.8306 35.9004C33.5979 35.7327 33.284 35.7327 33.0513 35.9004L31.8865 36.7391L30.7231 35.9004C30.4244 35.6849 30.0075 35.7526 29.7921 36.0514C29.5767 36.3501 29.6443 36.767 29.9431 36.9824L31.4965 38.1018C31.7293 38.2695 32.0431 38.2695 32.2759 38.1018L32.3332 38.0605V43.6681H28.6864C28.658 43.6684 28.6298 43.6704 28.6017 43.6741C27.8818 43.1812 27.2208 42.6075 26.6316 41.964C26.5043 41.8253 26.3809 41.6787 26.2569 41.5286C26.2342 41.5013 26.2096 41.4746 26.1869 41.4466C26.0742 41.3133 25.9709 41.172 25.8682 41.0293C25.8289 40.9759 25.7869 40.9246 25.7489 40.8706V40.8666C25.7436 40.8586 25.7389 40.8513 25.7336 40.8446L25.7116 40.8119C25.6942 40.7893 25.6802 40.7659 25.6636 40.7453C25.5082 40.5199 25.3635 40.2879 25.2249 40.0526C25.0915 39.8286 24.9708 39.6039 24.8588 39.3752C24.8142 39.2865 24.7682 39.1985 24.7255 39.1085C24.7128 39.0772 24.6975 39.0418 24.6895 39.0225L24.6568 38.9558L24.6488 38.9398V38.9365C24.4861 38.5736 24.343 38.2021 24.2201 37.8238C24.2081 37.7878 24.1968 37.7498 24.1848 37.7131C24.1241 37.5191 24.0675 37.3231 24.0168 37.1244C24.0168 37.1137 24.0108 37.1037 24.0088 37.0931C24.0048 37.0664 23.9995 37.0399 23.9928 37.0137C23.9808 36.9684 23.9721 36.9211 23.9615 36.8757C23.9295 36.7371 23.8948 36.5991 23.8695 36.459C23.8695 36.4437 23.8661 36.4284 23.8635 36.413C23.8281 36.231 23.7968 36.0424 23.7741 35.8537C23.7736 35.8123 23.7683 35.7711 23.7581 35.731C23.7581 35.717 23.7535 35.6943 23.7495 35.671C23.7248 35.471 23.7068 35.2763 23.6934 35.061C23.6721 34.819 23.6661 34.5763 23.6661 34.3343C23.6731 28.0776 28.7434 23.0073 35 23.0003C41.2567 23.0073 46.327 28.0776 46.334 34.3343C46.334 34.5763 46.328 34.819 46.3086 35.0676Z" fill="url(#paint10_linear_27_2)"/>
</g>
<rect width="70" height="70" rx="8" fill="url(#paint11_linear_27_2)" fill-opacity="0.1"/>
<defs>
<linearGradient id="paint0_linear_27_2" x1="34.3333" y1="17.6258" x2="35.6667" y2="17.6258" gradientUnits="userSpaceOnUse">
<stop stop-color="#7E90FE"/>
<stop offset="1" stop-color="#9873FF"/>
</linearGradient>
<linearGradient id="paint1_linear_27_2" x1="24.9972" y1="19.8612" x2="28.3354" y2="19.8612" gradientUnits="userSpaceOnUse">
<stop stop-color="#7E90FE"/>
<stop offset="1" stop-color="#9873FF"/>
</linearGradient>
<linearGradient id="paint2_linear_27_2" x1="18.1701" y1="25.975" x2="22.963" y2="25.975" gradientUnits="userSpaceOnUse">
<stop stop-color="#7E90FE"/>
<stop offset="1" stop-color="#9873FF"/>
</linearGradient>
<linearGradient id="paint3_linear_27_2" x1="15.6657" y1="34.3242" x2="20.9993" y2="34.3242" gradientUnits="userSpaceOnUse">
<stop stop-color="#7E90FE"/>
<stop offset="1" stop-color="#9873FF"/>
</linearGradient>
<linearGradient id="paint4_linear_27_2" x1="18.1598" y1="42.6424" x2="22.968" y2="42.6424" gradientUnits="userSpaceOnUse">
<stop stop-color="#7E90FE"/>
<stop offset="1" stop-color="#9873FF"/>
</linearGradient>
<linearGradient id="paint5_linear_27_2" x1="47.0293" y1="42.6402" x2="51.8297" y2="42.6402" gradientUnits="userSpaceOnUse">
<stop stop-color="#7E90FE"/>
<stop offset="1" stop-color="#9873FF"/>
</linearGradient>
<linearGradient id="paint6_linear_27_2" x1="49.0008" y1="34.3242" x2="54.3344" y2="34.3242" gradientUnits="userSpaceOnUse">
<stop stop-color="#7E90FE"/>
<stop offset="1" stop-color="#9873FF"/>
</linearGradient>
<linearGradient id="paint7_linear_27_2" x1="47.0366" y1="25.976" x2="51.8332" y2="25.976" gradientUnits="userSpaceOnUse">
<stop stop-color="#7E90FE"/>
<stop offset="1" stop-color="#9873FF"/>
</linearGradient>
<linearGradient id="paint8_linear_27_2" x1="41.6669" y1="19.8594" x2="45.0029" y2="19.8594" gradientUnits="userSpaceOnUse">
<stop stop-color="#7E90FE"/>
<stop offset="1" stop-color="#9873FF"/>
</linearGradient>
<linearGradient id="paint9_linear_27_2" x1="24.9995" y1="29.5853" x2="35.6667" y2="29.5853" gradientUnits="userSpaceOnUse">
<stop stop-color="#7E90FE"/>
<stop offset="1" stop-color="#9873FF"/>
</linearGradient>
<linearGradient id="paint10_linear_27_2" x1="22.3327" y1="38.0633" x2="47.67" y2="38.0633" gradientUnits="userSpaceOnUse">
<stop stop-color="#7E90FE"/>
<stop offset="1" stop-color="#9873FF"/>
</linearGradient>
<linearGradient id="paint11_linear_27_2" x1="-1.6677e-07" y1="34.4615" x2="70" y2="34.4615" gradientUnits="userSpaceOnUse">
<stop stop-color="#7E90FE"/>
<stop offset="1" stop-color="#9873FF"/>
</linearGradient>
<clipPath id="clip0_27_2">
<rect width="40" height="40" fill="white" transform="translate(15 15)"/>
</clipPath>
</defs>
</svg>
