<svg width="18" height="12" viewBox="0 0 18 12" fill="none" xmlns="http://www.w3.org/2000/svg">
<path d="M17.05 5H0.95C0.42533 5 0 5.42533 0 5.95V6.05C0 6.57467 0.42533 7 0.95 7H17.05C17.5747 7 18 6.57467 18 6.05V5.95C18 5.42533 17.5747 5 17.05 5Z" fill="#1B1B1B"/>
<path d="M17.05 10H0.95C0.42533 10 0 10.4253 0 10.95V11.05C0 11.5747 0.42533 12 0.95 12H17.05C17.5747 12 18 11.5747 18 11.05V10.95C18 10.4253 17.5747 10 17.05 10Z" fill="#1B1B1B"/>
<path d="M17.05 0H0.95C0.42533 0 0 0.425329 0 0.95V1.05C0 1.57467 0.42533 2 0.95 2H17.05C17.5747 2 18 1.57467 18 1.05V0.95C18 0.425329 17.5747 0 17.05 0Z" fill="#1B1B1B"/>
</svg>
